<svg width="30" height="24" viewBox="0 0 30 24" fill="none" xmlns="http://www.w3.org/2000/svg">
<path d="M18 13.5H25.5V10.5H18V13.5ZM18 9H25.5V6H18V9ZM4.5 18H16.5V17.175C16.5 16.05 15.95 15.1563 14.85 14.4938C13.75 13.8313 12.3 13.5 10.5 13.5C8.7 13.5 7.25 13.8313 6.15 14.4938C5.05 15.1563 4.5 16.05 4.5 17.175V18ZM10.5 12C11.325 12 12.0313 11.7063 12.6188 11.1188C13.2063 10.5313 13.5 9.825 13.5 9C13.5 8.175 13.2063 7.46875 12.6188 6.88125C12.0313 6.29375 11.325 6 10.5 6C9.675 6 8.96875 6.29375 8.38125 6.88125C7.79375 7.46875 7.5 8.175 7.5 9C7.5 9.825 7.79375 10.5313 8.38125 11.1188C8.96875 11.7063 9.675 12 10.5 12ZM3 24C2.175 24 1.46875 23.7063 0.88125 23.1188C0.29375 22.5313 0 21.825 0 21V3C0 2.175 0.29375 1.46875 0.88125 0.88125C1.46875 0.29375 2.175 0 3 0H27C27.825 0 28.5313 0.29375 29.1188 0.88125C29.7063 1.46875 30 2.175 30 3V21C30 21.825 29.7063 22.5313 29.1188 23.1188C28.5313 23.7063 27.825 24 27 24H3ZM3 21H27V3H3V21Z" fill="#F27405"/>
</svg>
