<svg width="50" height="50" viewBox="0 0 50 50" fill="none" xmlns="http://www.w3.org/2000/svg">
<path d="M48.8733 27.9416C50.3756 26.3146 50.3756 23.6724 48.8733 22.0454L29.6449 1.22023C28.1427 -0.406742 25.703 -0.406742 24.2008 1.22023C22.6986 2.84719 22.6986 5.48939 24.2008 7.11636L40.7133 25L24.2128 42.8836C22.7106 44.5106 22.7106 47.1528 24.2128 48.7798C25.7151 50.4067 28.1547 50.4067 29.6569 48.7798L48.8854 27.9546L48.8733 27.9416ZM6.57072 48.7668L25.7992 27.9416C27.3014 26.3146 27.3014 23.6724 25.7992 22.0454L6.57072 1.22023C5.0685 -0.406742 2.62889 -0.406742 1.12667 1.22023C-0.375556 2.84719 -0.375556 5.48939 1.12667 7.11636L17.6391 25L1.13869 42.8836C-0.363538 44.5106 -0.363538 47.1528 1.13869 48.7798C2.64091 50.4067 5.08052 50.4067 6.58274 48.7798L6.57072 48.7668Z" fill="white"/>
</svg>
