<svg width="25" height="25" viewBox="0 0 25 25" fill="none" xmlns="http://www.w3.org/2000/svg">
<path d="M2.32422 14.7453L11.1475 24.3776C11.5137 24.7773 11.9971 25 12.5 25C13.0029 25 13.4863 24.7773 13.8525 24.3776L22.6758 14.7453C24.1602 13.1295 25 10.8627 25 8.49317V8.16201C25 4.17091 22.5342 0.767908 19.1699 0.111289C16.9434 -0.322651 14.6777 0.528099 13.0859 2.38947L12.5 3.07464L11.9141 2.38947C10.3223 0.528099 8.05664 -0.322651 5.83008 0.111289C2.46582 0.767908 0 4.17091 0 8.16201V8.49317C0 10.8627 0.839844 13.1295 2.32422 14.7453Z" fill="#F00505"/>
</svg>
