<svg width="30" height="17" viewBox="0 0 30 17" fill="none" xmlns="http://www.w3.org/2000/svg">
<path d="M1.36364 16.3636V13.6364H28.6364V16.3636H1.36364ZM2.93182 8.11364L1.15909 7.09091L2.31818 5.04545H0V3H2.31818L1.15909 1.02273L2.93182 0L4.09091 1.97727L5.25 0L7.02273 1.02273L5.86364 3H8.18182V5.04545H5.86364L7.02273 7.09091L5.25 8.11364L4.09091 6.06818L2.93182 8.11364ZM13.8409 8.11364L12.0682 7.09091L13.2273 5.04545H10.9091V3H13.2273L12.0682 1.02273L13.8409 0L15 1.97727L16.1591 0L17.9318 1.02273L16.7727 3H19.0909V5.04545H16.7727L17.9318 7.09091L16.1591 8.11364L15 6.06818L13.8409 8.11364ZM24.75 8.11364L22.9773 7.09091L24.1364 5.04545H21.8182V3H24.1364L22.9773 1.02273L24.75 0L25.9091 1.97727L27.0682 0L28.8409 1.02273L27.6818 3H30V5.04545H27.6818L28.8409 7.09091L27.0682 8.11364L25.9091 6.06818L24.75 8.11364Z" fill="#F27405"/>
</svg>
